<svg width="1000" height="600" xmlns="http://www.w3.org/2000/svg"><path fill="#e8e5ff" d="M0 0h1000v600H0z"/><path d="M0 66h0c21.114 1.451 42.228 2.903 63 4s41.201 1.84 62 1c20.799-.84 41.966-3.262 62-5s38.935-2.793 60-3c21.065-.207 44.294.433 66 0 21.706-.433 41.89-1.94 62-2 20.11-.06 40.148 1.325 61 1 20.852-.325 42.518-2.36 63-2 20.482.36 39.78 3.112 61 5s44.359 2.91 65 2c20.641-.91 38.784-3.752 60-4 21.216-.248 45.505 2.096 67 3 21.495.904 40.194.366 60 1 19.806.634 40.717 2.44 62 1s42.938-6.126 64-7c21.062-.874 41.531 2.063 102 5" fill="none" stroke="#d1cbff" stroke-width="7" stroke-linecap="round"/><path d="M0 133h0c19.825.432 39.65.865 60 1s41.227-.026 63 1c21.773 1.026 44.443 3.24 66 3 21.557-.24 42.003-2.935 63-3 20.997-.065 42.547 2.5 62 4 19.453 1.5 36.809 1.935 58 0 21.191-1.935 46.217-6.241 67-6 20.783.241 37.324 5.03 58 4 20.676-1.03 45.489-7.88 67-8 21.511-.12 39.721 6.487 60 8 20.279 1.513 42.625-2.07 64-4 21.375-1.93 41.777-2.208 62-1 20.223 1.208 40.266 3.901 61 4 20.734.099 42.16-2.396 63-2 20.84.396 41.097 3.685 62 4 20.903.315 42.451-2.342 104-5" fill="none" stroke="#796aff" stroke-width="7" stroke-linecap="round"/><path d="M0 200h0c19.134-3.545 38.268-7.09 60-7 21.732.09 46.06 3.816 67 4 20.94.184 38.488-3.173 59-3 20.512.173 43.987 3.878 65 4 21.013.122 39.563-3.337 59-2 19.437 1.337 39.761 7.47 62 8 22.239.53 46.392-4.543 68-4 21.608.543 40.67 6.703 61 5 20.33-1.703 41.93-11.268 62-12 20.07-.732 38.61 7.369 60 9 21.39 1.631 45.632-3.208 67-4 21.368-.792 39.864 2.462 59 3 19.136.538 38.913-1.64 61-1 22.087.64 46.485 4.095 67 5 20.515.905 37.147-.741 57-2s42.926-2.13 106-3" fill="none" stroke="#412bff" stroke-width="7" stroke-linecap="round"/><path d="M0 266h0c22.079 3.26 44.157 6.52 65 5 20.843-1.52 40.45-7.819 61-10 20.55-2.181 42.041-.244 63 0 20.959.244 41.385-1.203 61 1 19.615 2.203 38.418 8.058 60 9 21.582.942 45.944-3.03 67-5 21.056-1.97 38.807-1.942 59-3 20.193-1.058 42.829-3.204 65-2 22.171 1.204 43.878 5.76 64 8s38.659 2.167 59 2c20.341-.167 42.487-.427 63-2 20.513-1.573 39.394-4.457 60-6 20.606-1.543 42.936-1.743 65-2 22.064-.257 43.864-.57 65 0 21.136.57 41.61 2.02 62 3s40.695 1.49 101 2" fill="none" stroke="#4934ff" stroke-width="7" stroke-linecap="round"/><path d="M0 333h0c22.436-.934 44.873-1.868 65-1 20.127.868 37.946 3.537 58 3 20.054-.537 42.344-4.282 64-5s42.677 1.589 64 4 42.949 4.926 63 3c20.051-1.926 38.53-8.295 59-8 20.47.295 42.935 7.252 65 7 22.065-.252 43.73-7.714 64-10 20.27-2.286 39.144.604 60 4s43.695 7.3 65 9c21.305 1.7 41.077 1.197 61-2 19.923-3.197 39.996-9.089 60-9 20.004.089 39.94 6.158 61 7 21.06.842 43.247-3.542 64-3 20.753.542 40.072 6.012 61 7 20.928.988 43.464-2.506 106-6" fill="none" stroke="#8375ff" stroke-width="7" stroke-linecap="round"/><path d="M0 400h0c20.426-3.729 40.852-7.458 61-6 20.148 1.458 40.018 8.102 61 8 20.982-.102 43.077-6.951 65-8 21.923-1.049 43.675 3.702 64 5 20.325 1.298 39.224-.856 60-2 20.776-1.144 43.428-1.277 65 0 21.572 1.277 42.062 3.963 63 5 20.938 1.037 42.322.425 63 0 20.678-.425 40.649-.661 61-3s41.083-6.779 62-6c20.917.779 42.02 6.776 63 7 20.98.224 41.837-5.327 63-5 21.163.327 42.631 6.53 63 7 20.369.47 39.638-4.797 60-5 20.362-.203 41.818 4.656 63 6 21.182 1.344 42.091-.828 103-3" fill="none" stroke="#402aff" stroke-width="7" stroke-linecap="round"/><path d="M0 466h0c20.4-1.417 40.8-2.834 61-2 20.2.834 40.201 3.918 62 4 21.799.082 45.396-2.838 66-5s38.213-3.564 58-1 41.75 9.095 63 9c21.25-.095 41.788-6.817 63-7 21.212-.183 43.1 6.172 64 8 20.9 1.828 40.815-.87 61-4 20.185-3.13 40.64-6.69 62-5 21.36 1.69 43.622 8.632 65 9 21.378.368 41.873-5.84 63-8 21.127-2.16 42.888-.275 63 2 20.112 2.275 38.576 4.94 59 4 20.424-.94 42.806-5.484 65-5 22.194.484 44.198 5.995 65 7s40.4-2.498 100-6" fill="none" stroke="#a89fff" stroke-width="7" stroke-linecap="round"/><path d="M0 533h0c20.332-1.774 40.663-3.547 61-2 20.337 1.547 40.68 6.416 61 8 20.32 1.584 40.62-.117 62 0 21.38.117 43.841 2.052 65 0s41.015-8.09 62-9c20.985-.91 43.097 3.311 65 3 21.903-.311 43.596-5.153 64-6 20.404-.847 39.517 2.302 59 5 19.483 2.698 39.336 4.946 61 4 21.664-.946 45.141-5.087 66-5 20.859.087 39.1 4.4 60 5 20.9.6 44.456-2.516 65-2 20.544.516 38.074 4.664 59 4 20.926-.664 45.25-6.14 67-7 21.75-.86 40.929 2.897 61 4 20.071 1.103 41.036-.449 102-2" fill="none" stroke="#c7c0ff" stroke-width="7" stroke-linecap="round"/></svg>